<svg width="60" height="11" viewBox="0 0 60 11" fill="none" xmlns="http://www.w3.org/2000/svg">
<path d="M0.702504 10V0.545454H6.37154V1.56108H1.84739V4.75568H5.94682V5.77131H1.84739V10H0.702504ZM10.2713 10.1662C9.82197 10.1662 9.41418 10.0816 9.04794 9.91229C8.6817 9.73994 8.39086 9.49219 8.17543 9.16903C7.95999 8.8428 7.85227 8.44886 7.85227 7.98722C7.85227 7.58097 7.93229 7.25166 8.09233 6.99929C8.25237 6.74384 8.46626 6.5438 8.73402 6.39915C9.00178 6.2545 9.29723 6.14678 9.62038 6.07599C9.94661 6.00213 10.2744 5.94366 10.6037 5.90057C11.0346 5.84517 11.3839 5.80362 11.6516 5.77592C11.9225 5.74515 12.1194 5.69437 12.2425 5.62358C12.3687 5.55279 12.4318 5.42969 12.4318 5.25426V5.21733C12.4318 4.76184 12.3072 4.40791 12.0579 4.15554C11.8117 3.90317 11.4377 3.77699 10.9361 3.77699C10.416 3.77699 10.0082 3.89086 9.71271 4.11861C9.41726 4.34635 9.20952 4.58949 9.08949 4.84801L8.0554 4.47869C8.24006 4.04782 8.48627 3.71236 8.79403 3.4723C9.10488 3.22917 9.44342 3.0599 9.80966 2.96449C10.179 2.866 10.5421 2.81676 10.8991 2.81676C11.1269 2.81676 11.3885 2.84446 11.6839 2.89986C11.9825 2.95218 12.2702 3.06143 12.5472 3.22763C12.8273 3.39382 13.0597 3.64465 13.2443 3.98011C13.429 4.31558 13.5213 4.76491 13.5213 5.32812V10H12.4318V9.03977H12.3764C12.3026 9.19366 12.1795 9.35831 12.0071 9.53374C11.8348 9.70916 11.6055 9.85843 11.3192 9.98153C11.033 10.1046 10.6837 10.1662 10.2713 10.1662ZM10.4375 9.1875C10.8684 9.1875 11.2315 9.10286 11.527 8.93359C11.8255 8.76432 12.0502 8.54581 12.201 8.27805C12.3549 8.0103 12.4318 7.72869 12.4318 7.43324V6.43608C12.3857 6.49148 12.2841 6.54226 12.1271 6.58842C11.9732 6.63151 11.7947 6.66998 11.5916 6.70383C11.3916 6.73461 11.1961 6.76231 11.0053 6.78693C10.8176 6.80848 10.6652 6.82694 10.5483 6.84233C10.2652 6.87926 10.0005 6.93928 9.75426 7.02237C9.51113 7.10239 9.31416 7.22396 9.16335 7.38707C9.01563 7.54711 8.94176 7.76562 8.94176 8.04261C8.94176 8.42116 9.08179 8.70739 9.36186 8.90128C9.645 9.09209 10.0036 9.1875 10.4375 9.1875ZM18.3905 10.1477C17.7258 10.1477 17.1533 9.99077 16.6732 9.67685C16.1931 9.36293 15.8238 8.93052 15.5653 8.37962C15.3067 7.82872 15.1775 7.19934 15.1775 6.49148C15.1775 5.77131 15.3098 5.13577 15.5745 4.58487C15.8422 4.03089 16.2146 3.59848 16.6917 3.28764C17.1718 2.97372 17.7319 2.81676 18.3721 2.81676C18.8706 2.81676 19.32 2.90909 19.7201 3.09375C20.1202 3.27841 20.4479 3.53693 20.7034 3.86932C20.9588 4.2017 21.1173 4.58949 21.1789 5.03267H20.0894C20.0063 4.70952 19.8216 4.4233 19.5354 4.17401C19.2523 3.92164 18.8706 3.79545 18.3905 3.79545C17.9658 3.79545 17.5934 3.90625 17.2733 4.12784C16.9564 4.34635 16.7086 4.65566 16.5301 5.05575C16.3547 5.45277 16.267 5.91903 16.267 6.45455C16.267 7.00237 16.3531 7.4794 16.5255 7.88565C16.7009 8.2919 16.9471 8.60736 17.2641 8.83203C17.5842 9.0567 17.9597 9.16903 18.3905 9.16903C18.6737 9.16903 18.9307 9.11979 19.1615 9.02131C19.3923 8.92282 19.5877 8.78125 19.7478 8.59659C19.9078 8.41193 20.0217 8.19034 20.0894 7.93182H21.1789C21.1173 8.35038 20.965 8.72739 20.7219 9.06286C20.4818 9.39524 20.1633 9.65992 19.7662 9.85689C19.3723 10.0508 18.9137 10.1477 18.3905 10.1477ZM25.7446 10.1477C25.0613 10.1477 24.472 9.99692 23.9765 9.69531C23.484 9.39062 23.104 8.96591 22.8362 8.42116C22.5715 7.87334 22.4392 7.23627 22.4392 6.50994C22.4392 5.78362 22.5715 5.14347 22.8362 4.58949C23.104 4.03243 23.4764 3.59848 23.9534 3.28764C24.4335 2.97372 24.9936 2.81676 25.6338 2.81676C26.0031 2.81676 26.3678 2.87831 26.7279 3.00142C27.088 3.12453 27.4157 3.32457 27.7112 3.60156C28.0067 3.87547 28.2421 4.23864 28.4175 4.69105C28.593 5.14347 28.6807 5.70052 28.6807 6.36222V6.82386H23.2148V5.8821H27.5727C27.5727 5.48201 27.4927 5.125 27.3327 4.81108C27.1757 4.49716 26.951 4.24941 26.6586 4.06783C26.3693 3.88625 26.0277 3.79545 25.6338 3.79545C25.1998 3.79545 24.8244 3.90317 24.5074 4.11861C24.1934 4.33097 23.9519 4.60795 23.7826 4.94957C23.6133 5.29119 23.5287 5.65743 23.5287 6.0483V6.67614C23.5287 7.21165 23.621 7.6656 23.8057 8.038C23.9934 8.40732 24.2535 8.68892 24.5858 8.88281C24.9182 9.07363 25.3045 9.16903 25.7446 9.16903C26.0308 9.16903 26.2893 9.12902 26.5202 9.04901C26.7541 8.96591 26.9556 8.8428 27.1249 8.67969C27.2942 8.51349 27.425 8.30729 27.5173 8.06108L28.5699 8.35653C28.4591 8.71354 28.2729 9.02746 28.0113 9.2983C27.7497 9.56605 27.4265 9.77533 27.0418 9.92614C26.6571 10.0739 26.2247 10.1477 25.7446 10.1477ZM30.4857 10V0.545454H31.5752V4.03551H31.6675C31.7475 3.91241 31.8583 3.75544 31.9999 3.56463C32.1446 3.37074 32.3508 3.19839 32.6185 3.04759C32.8894 2.8937 33.2556 2.81676 33.7172 2.81676C34.3143 2.81676 34.8406 2.96603 35.2961 3.26456C35.7516 3.56309 36.107 3.98627 36.3625 4.53409C36.6179 5.08191 36.7457 5.72822 36.7457 6.47301C36.7457 7.22396 36.6179 7.87488 36.3625 8.42578C36.107 8.9736 35.7531 9.39832 35.3007 9.69993C34.8483 9.99846 34.3266 10.1477 33.7357 10.1477C33.2802 10.1477 32.9155 10.0723 32.6416 9.92152C32.3677 9.76764 32.1569 9.59375 32.0091 9.39986C31.8614 9.20289 31.7475 9.03977 31.6675 8.91051H31.5383V10H30.4857ZM31.5567 6.45455C31.5567 6.99006 31.6352 7.46248 31.7922 7.8718C31.9491 8.27805 32.1784 8.59659 32.48 8.82741C32.7816 9.05516 33.151 9.16903 33.588 9.16903C34.0435 9.16903 34.4236 9.04901 34.7282 8.80895C35.036 8.56581 35.2668 8.23958 35.4207 7.83026C35.5777 7.41785 35.6562 6.95928 35.6562 6.45455C35.6562 5.95597 35.5792 5.50663 35.4253 5.10653C35.2745 4.70336 35.0452 4.38482 34.7375 4.15092C34.4328 3.91394 34.0496 3.79545 33.588 3.79545C33.1448 3.79545 32.7724 3.90779 32.4708 4.13246C32.1692 4.35405 31.9414 4.66489 31.7876 5.06499C31.6337 5.462 31.5567 5.92519 31.5567 6.45455ZM41.2929 10.1477C40.6527 10.1477 40.0911 9.99538 39.6079 9.6907C39.1278 9.38601 38.7523 8.95975 38.4814 8.41193C38.2137 7.86411 38.0798 7.22396 38.0798 6.49148C38.0798 5.75284 38.2137 5.10807 38.4814 4.55717C38.7523 4.00627 39.1278 3.57848 39.6079 3.27379C40.0911 2.96911 40.6527 2.81676 41.2929 2.81676C41.933 2.81676 42.4932 2.96911 42.9733 3.27379C43.4565 3.57848 43.8319 4.00627 44.0997 4.55717C44.3705 5.10807 44.5059 5.75284 44.5059 6.49148C44.5059 7.22396 44.3705 7.86411 44.0997 8.41193C43.8319 8.95975 43.4565 9.38601 42.9733 9.6907C42.4932 9.99538 41.933 10.1477 41.2929 10.1477ZM41.2929 9.16903C41.7791 9.16903 42.1792 9.04439 42.4932 8.7951C42.8071 8.54581 43.0394 8.21804 43.1903 7.81179C43.3411 7.40554 43.4165 6.96544 43.4165 6.49148C43.4165 6.01752 43.3411 5.57588 43.1903 5.16655C43.0394 4.75722 42.8071 4.42637 42.4932 4.17401C42.1792 3.92164 41.7791 3.79545 41.2929 3.79545C40.8066 3.79545 40.4065 3.92164 40.0926 4.17401C39.7787 4.42637 39.5463 4.75722 39.3955 5.16655C39.2447 5.57588 39.1693 6.01752 39.1693 6.49148C39.1693 6.96544 39.2447 7.40554 39.3955 7.81179C39.5463 8.21804 39.7787 8.54581 40.0926 8.7951C40.4065 9.04439 40.8066 9.16903 41.2929 9.16903ZM49.0497 10.1477C48.4096 10.1477 47.8479 9.99538 47.3647 9.6907C46.8846 9.38601 46.5091 8.95975 46.2383 8.41193C45.9705 7.86411 45.8366 7.22396 45.8366 6.49148C45.8366 5.75284 45.9705 5.10807 46.2383 4.55717C46.5091 4.00627 46.8846 3.57848 47.3647 3.27379C47.8479 2.96911 48.4096 2.81676 49.0497 2.81676C49.6899 2.81676 50.25 2.96911 50.7301 3.27379C51.2133 3.57848 51.5888 4.00627 51.8565 4.55717C52.1274 5.10807 52.2628 5.75284 52.2628 6.49148C52.2628 7.22396 52.1274 7.86411 51.8565 8.41193C51.5888 8.95975 51.2133 9.38601 50.7301 9.6907C50.25 9.99538 49.6899 10.1477 49.0497 10.1477ZM49.0497 9.16903C49.536 9.16903 49.9361 9.04439 50.25 8.7951C50.5639 8.54581 50.7963 8.21804 50.9471 7.81179C51.0979 7.40554 51.1733 6.96544 51.1733 6.49148C51.1733 6.01752 51.0979 5.57588 50.9471 5.16655C50.7963 4.75722 50.5639 4.42637 50.25 4.17401C49.9361 3.92164 49.536 3.79545 49.0497 3.79545C48.5634 3.79545 48.1634 3.92164 47.8494 4.17401C47.5355 4.42637 47.3031 4.75722 47.1523 5.16655C47.0015 5.57588 46.9261 6.01752 46.9261 6.49148C46.9261 6.96544 47.0015 7.40554 47.1523 7.81179C47.3031 8.21804 47.5355 8.54581 47.8494 8.7951C48.1634 9.04439 48.5634 9.16903 49.0497 9.16903ZM54.9415 7.41477L54.923 6.06676H55.1446L58.2469 2.90909H59.5949L56.2895 6.25142H56.1972L54.9415 7.41477ZM53.9259 10V0.545454H55.0154V10H53.9259ZM58.4316 10L55.6617 6.49148L56.4372 5.73438L59.8165 10H58.4316Z" fill="black"/>
</svg>
