<svg width="119" height="13" viewBox="0 0 119 13" fill="none" xmlns="http://www.w3.org/2000/svg">
<path d="M6.79075 10H5.64586V1.56108H3.63308C3.12219 1.56108 2.71132 1.63956 2.40048 1.79652C2.08964 1.9504 1.86343 2.16892 1.72186 2.45206C1.58029 2.7352 1.5095 3.06605 1.5095 3.4446C1.5095 3.82315 1.57875 4.14938 1.71724 4.4233C1.85881 4.69413 2.08348 4.90341 2.39125 5.05114C2.70209 5.19886 3.10988 5.27273 3.61461 5.27273H6.16291V6.30682H3.57768C2.8452 6.30682 2.24352 6.18525 1.77264 5.94212C1.30176 5.6959 0.952444 5.35736 0.724698 4.92649C0.496952 4.49562 0.383079 4.00166 0.383079 3.4446C0.383079 2.88755 0.496952 2.39051 0.724698 1.95348C0.952444 1.51645 1.3033 1.17329 1.77725 0.924005C2.25121 0.671638 2.85751 0.545454 3.59615 0.545454H6.79075V10ZM2.34047 5.75284H3.63308L1.34331 10H0.0137607L2.34047 5.75284ZM13.6843 5.95597V6.97159H9.76953V5.95597H13.6843ZM10.0281 2.90909V10H8.93857V2.90909H10.0281ZM14.5153 2.90909V10H13.4258V2.90909H14.5153ZM15.7479 12.0312V8.98438H16.3388C16.4834 8.83357 16.6081 8.67045 16.7127 8.49503C16.8174 8.3196 16.9081 8.11186 16.9851 7.8718C17.0651 7.62867 17.1328 7.33321 17.1882 6.98544C17.2436 6.63459 17.2929 6.21141 17.3359 5.71591L17.576 2.90909H22.0817V8.98438H23.1712V12.0312H22.0817V10H16.8374V12.0312H15.7479ZM17.576 8.98438H20.9922V3.92472H18.5916L18.407 5.71591C18.33 6.45762 18.2346 7.10547 18.1207 7.65945C18.0069 8.21342 17.8253 8.65507 17.576 8.98438ZM27.5903 10.1477C26.907 10.1477 26.3177 9.99692 25.8222 9.69531C25.3298 9.39062 24.9497 8.96591 24.6819 8.42116C24.4172 7.87334 24.2849 7.23627 24.2849 6.50994C24.2849 5.78362 24.4172 5.14347 24.6819 4.58949C24.9497 4.03243 25.3221 3.59848 25.7991 3.28764C26.2792 2.97372 26.8393 2.81676 27.4795 2.81676C27.8488 2.81676 28.2135 2.87831 28.5736 3.00142C28.9337 3.12453 29.2615 3.32457 29.5569 3.60156C29.8524 3.87547 30.0878 4.23864 30.2632 4.69105C30.4387 5.14347 30.5264 5.70052 30.5264 6.36222V6.82386H25.0605V5.8821H29.4184C29.4184 5.48201 29.3384 5.125 29.1784 4.81108C29.0214 4.49716 28.7967 4.24941 28.5044 4.06783C28.2151 3.88625 27.8734 3.79545 27.4795 3.79545C27.0455 3.79545 26.6701 3.90317 26.3531 4.11861C26.0392 4.33097 25.7976 4.60795 25.6283 4.94957C25.459 5.29119 25.3744 5.65743 25.3744 6.0483V6.67614C25.3744 7.21165 25.4667 7.6656 25.6514 8.038C25.8391 8.40732 26.0992 8.68892 26.4316 8.88281C26.7639 9.07363 27.1502 9.16903 27.5903 9.16903C27.8765 9.16903 28.135 9.12902 28.3659 9.04901C28.5998 8.96591 28.8013 8.8428 28.9706 8.67969C29.1399 8.51349 29.2707 8.30729 29.363 8.06108L30.4156 8.35653C30.3048 8.71354 30.1186 9.02746 29.857 9.2983C29.5954 9.56605 29.2722 9.77533 28.8875 9.92614C28.5028 10.0739 28.0704 10.1477 27.5903 10.1477ZM32.1837 10V2.90909H33.2732V5.9929H33.9933L36.5416 2.90909H37.945L35.0828 6.32528L37.982 10H36.5786L34.2519 7.00852H33.2732V10H32.1837ZM41.7548 10.1477C41.09 10.1477 40.5176 9.99077 40.0375 9.67685C39.5574 9.36293 39.188 8.93052 38.9295 8.37962C38.671 7.82872 38.5417 7.19934 38.5417 6.49148C38.5417 5.77131 38.6741 5.13577 38.9387 4.58487C39.2065 4.03089 39.5789 3.59848 40.0559 3.28764C40.536 2.97372 41.0962 2.81676 41.7363 2.81676C42.2349 2.81676 42.6842 2.90909 43.0843 3.09375C43.4844 3.27841 43.8122 3.53693 44.0676 3.86932C44.3231 4.2017 44.4816 4.58949 44.5431 5.03267H43.4537C43.3706 4.70952 43.1859 4.4233 42.8997 4.17401C42.6165 3.92164 42.2349 3.79545 41.7548 3.79545C41.3301 3.79545 40.9577 3.90625 40.6376 4.12784C40.3206 4.34635 40.0729 4.65566 39.8944 5.05575C39.7189 5.45277 39.6312 5.91903 39.6312 6.45455C39.6312 7.00237 39.7174 7.4794 39.8897 7.88565C40.0652 8.2919 40.3114 8.60736 40.6284 8.83203C40.9484 9.0567 41.3239 9.16903 41.7548 9.16903C42.0379 9.16903 42.2949 9.11979 42.5257 9.02131C42.7566 8.92282 42.952 8.78125 43.112 8.59659C43.2721 8.41193 43.3859 8.19034 43.4537 7.93182H44.5431C44.4816 8.35038 44.3292 8.72739 44.0861 9.06286C43.8461 9.39524 43.5275 9.65992 43.1305 9.85689C42.7366 10.0508 42.278 10.1477 41.7548 10.1477ZM46.9299 10.0739C46.7021 10.0739 46.5067 9.99231 46.3436 9.82919C46.1805 9.66607 46.0989 9.47064 46.0989 9.2429C46.0989 9.01515 46.1805 8.81972 46.3436 8.65661C46.5067 8.49349 46.7021 8.41193 46.9299 8.41193C47.1576 8.41193 47.353 8.49349 47.5162 8.65661C47.6793 8.81972 47.7608 9.01515 47.7608 9.2429C47.7608 9.3937 47.7224 9.5322 47.6454 9.65838C47.5716 9.78456 47.4715 9.88613 47.3453 9.96307C47.2222 10.0369 47.0837 10.0739 46.9299 10.0739ZM56.9361 0.545454V10H55.7912V1.56108H51.027V10H49.8821V0.545454H56.9361ZM59.0977 12.6591V2.90909H60.1503V4.03551H60.2796C60.3596 3.91241 60.4704 3.75544 60.6119 3.56463C60.7566 3.37074 60.9628 3.19839 61.2306 3.04759C61.5014 2.8937 61.8676 2.81676 62.3293 2.81676C62.9263 2.81676 63.4526 2.96603 63.9081 3.26456C64.3636 3.56309 64.7191 3.98627 64.9745 4.53409C65.23 5.08191 65.3577 5.72822 65.3577 6.47301C65.3577 7.22396 65.23 7.87488 64.9745 8.42578C64.7191 8.9736 64.3651 9.39832 63.9127 9.69993C63.4603 9.99846 62.9387 10.1477 62.3477 10.1477C61.8923 10.1477 61.5276 10.0723 61.2536 9.92152C60.9797 9.76764 60.7689 9.59375 60.6212 9.39986C60.4735 9.20289 60.3596 9.03977 60.2796 8.91051H60.1872V12.6591H59.0977ZM60.1688 6.45455C60.1688 6.99006 60.2472 7.46248 60.4042 7.8718C60.5612 8.27805 60.7905 8.59659 61.0921 8.82741C61.3937 9.05516 61.763 9.16903 62.2 9.16903C62.6555 9.16903 63.0356 9.04901 63.3403 8.80895C63.6481 8.56581 63.8789 8.23958 64.0328 7.83026C64.1897 7.41785 64.2682 6.95928 64.2682 6.45455C64.2682 5.95597 64.1913 5.50663 64.0374 5.10653C63.8866 4.70336 63.6573 4.38482 63.3495 4.15092C63.0448 3.91394 62.6617 3.79545 62.2 3.79545C61.7568 3.79545 61.3844 3.90779 61.0828 4.13246C60.7812 4.35405 60.5535 4.66489 60.3996 5.06499C60.2457 5.462 60.1688 5.92519 60.1688 6.45455ZM69.1063 10.1662C68.6569 10.1662 68.2491 10.0816 67.8829 9.91229C67.5167 9.73994 67.2258 9.49219 67.0104 9.16903C66.795 8.8428 66.6872 8.44886 66.6872 7.98722C66.6872 7.58097 66.7673 7.25166 66.9273 6.99929C67.0873 6.74384 67.3012 6.5438 67.569 6.39915C67.8367 6.2545 68.1322 6.14678 68.4553 6.07599C68.7816 6.00213 69.1093 5.94366 69.4387 5.90057C69.8695 5.84517 70.2188 5.80362 70.4866 5.77592C70.7574 5.74515 70.9544 5.69437 71.0775 5.62358C71.2037 5.55279 71.2668 5.42969 71.2668 5.25426V5.21733C71.2668 4.76184 71.1421 4.40791 70.8928 4.15554C70.6466 3.90317 70.2727 3.77699 69.771 3.77699C69.2509 3.77699 68.8431 3.89086 68.5477 4.11861C68.2522 4.34635 68.0445 4.58949 67.9244 4.84801L66.8904 4.47869C67.075 4.04782 67.3212 3.71236 67.629 3.4723C67.9398 3.22917 68.2784 3.0599 68.6446 2.96449C69.0139 2.866 69.3771 2.81676 69.7341 2.81676C69.9619 2.81676 70.2235 2.84446 70.5189 2.89986C70.8174 2.95218 71.1052 3.06143 71.3822 3.22763C71.6623 3.39382 71.8946 3.64465 72.0793 3.98011C72.2639 4.31558 72.3563 4.76491 72.3563 5.32812V10H71.2668V9.03977H71.2114C71.1375 9.19366 71.0144 9.35831 70.8421 9.53374C70.6697 9.70916 70.4404 9.85843 70.1542 9.98153C69.868 10.1046 69.5187 10.1662 69.1063 10.1662ZM69.2725 9.1875C69.7033 9.1875 70.0665 9.10286 70.3619 8.93359C70.6605 8.76432 70.8852 8.54581 71.036 8.27805C71.1898 8.0103 71.2668 7.72869 71.2668 7.43324V6.43608C71.2206 6.49148 71.1191 6.54226 70.9621 6.58842C70.8082 6.63151 70.6297 6.66998 70.4266 6.70383C70.2265 6.73461 70.0311 6.76231 69.8403 6.78693C69.6526 6.80848 69.5002 6.82694 69.3833 6.84233C69.1001 6.87926 68.8354 6.93928 68.5892 7.02237C68.3461 7.10239 68.1491 7.22396 67.9983 7.38707C67.8506 7.54711 67.7767 7.76562 67.7767 8.04261C67.7767 8.42116 67.9168 8.70739 68.1968 8.90128C68.48 9.09209 68.8385 9.1875 69.2725 9.1875ZM74.3448 10V2.90909H75.4343V5.9929H76.1545L78.7028 2.90909H80.1062L77.244 6.32528L80.1431 10H78.7397L76.413 7.00852H75.4343V10H74.3448ZM80.921 3.92472V2.90909H86.6824V3.92472H84.3556V10H83.2662V3.92472H80.921ZM89.3611 8.39347L92.7773 2.90909H94.0329V10H92.9434V4.51562L89.5457 10H88.2716V2.90909H89.3611V8.39347ZM96.0284 10V2.90909H97.1179V5.9929H97.8381L100.386 2.90909H101.79L98.9276 6.32528L101.827 10H100.423L98.0966 7.00852H97.1179V10H96.0284ZM103.713 12.6591C103.528 12.6591 103.363 12.6437 103.219 12.6129C103.074 12.5852 102.974 12.5575 102.919 12.5298L103.195 11.5696C103.46 11.6373 103.694 11.6619 103.897 11.6435C104.1 11.625 104.28 11.5342 104.437 11.3711C104.597 11.2111 104.744 10.951 104.876 10.5909L105.079 10.0369L102.457 2.90909H103.639L105.596 8.55966H105.67L107.627 2.90909H108.809L105.799 11.0341C105.664 11.4003 105.496 11.7035 105.296 11.9435C105.096 12.1867 104.864 12.3667 104.599 12.4837C104.337 12.6006 104.042 12.6591 103.713 12.6591ZM114.125 8.52273L116.599 2.90909H117.634L114.568 10H113.682L110.672 2.90909H111.688L114.125 8.52273ZM111.337 2.90909V10H110.247V2.90909H111.337ZM116.913 10V2.90909H118.003V10H116.913Z" fill="black"/>
</svg>
